<mxfile host="app.diagrams.net" modified="2022-12-05T17:46:22.338Z" agent="5.0 (X11)" version="20.6.0" etag="O9dM8Ka4B_JDKI_hkNx0" type="github">
  <diagram id="azD1422yWmR8CSrwZ9Bw" name="PÃ¡gina-1">
    <mxGraphModel dx="10171" dy="1833" grid="1" gridSize="10" guides="1" tooltips="1" connect="1" arrows="1" fold="1" page="1" pageScale="1" pageWidth="827" pageHeight="1169" math="0" shadow="0">
      <root>
        <mxCell id="0" />
        <mxCell id="1" parent="0" />
        <mxCell id="71u4eUDGPH7ACqHsyRGV-1" value="" style="rounded=0;whiteSpace=wrap;html=1;labelBackgroundColor=#000000;labelBorderColor=default;fontSize=39;strokeWidth=5;fillColor=#ffe6cc;strokeColor=#d79b00;" vertex="1" parent="1">
          <mxGeometry x="-6390" y="127" width="1070" height="2770" as="geometry" />
        </mxCell>
        <mxCell id="71u4eUDGPH7ACqHsyRGV-2" value="" style="verticalLabelPosition=bottom;html=1;verticalAlign=top;align=center;shape=mxgraph.floorplan.room;fillColor=#000000;strokeWidth=3;" vertex="1" parent="1">
          <mxGeometry x="-6400" y="110" width="1090" height="2790" as="geometry" />
        </mxCell>
        <mxCell id="71u4eUDGPH7ACqHsyRGV-3" value="" style="verticalLabelPosition=bottom;html=1;verticalAlign=top;align=center;shape=mxgraph.floorplan.doorRight;aspect=fixed;strokeWidth=4;" vertex="1" parent="1">
          <mxGeometry x="-5500" y="132" width="174.12" height="185" as="geometry" />
        </mxCell>
        <mxCell id="71u4eUDGPH7ACqHsyRGV-4" value="" style="shape=orEllipse;perimeter=ellipsePerimeter;whiteSpace=wrap;html=1;backgroundOutline=1;fontColor=#000000;strokeWidth=4;" vertex="1" parent="1">
          <mxGeometry x="-5670" y="128" width="60" height="60" as="geometry" />
        </mxCell>
        <mxCell id="71u4eUDGPH7ACqHsyRGV-5" value="" style="shape=orEllipse;perimeter=ellipsePerimeter;whiteSpace=wrap;html=1;backgroundOutline=1;fontColor=#000000;strokeWidth=4;" vertex="1" parent="1">
          <mxGeometry x="-5940" y="127" width="60" height="60" as="geometry" />
        </mxCell>
        <mxCell id="71u4eUDGPH7ACqHsyRGV-6" value="" style="shape=orEllipse;perimeter=ellipsePerimeter;whiteSpace=wrap;html=1;backgroundOutline=1;fontColor=#000000;strokeWidth=4;" vertex="1" parent="1">
          <mxGeometry x="-6270" y="126.25" width="60" height="60" as="geometry" />
        </mxCell>
        <mxCell id="71u4eUDGPH7ACqHsyRGV-7" value="" style="shape=orEllipse;perimeter=ellipsePerimeter;whiteSpace=wrap;html=1;backgroundOutline=1;fontColor=#000000;strokeWidth=4;" vertex="1" parent="1">
          <mxGeometry x="-5655" y="2822.5" width="60" height="60" as="geometry" />
        </mxCell>
        <mxCell id="71u4eUDGPH7ACqHsyRGV-8" value="" style="shape=orEllipse;perimeter=ellipsePerimeter;whiteSpace=wrap;html=1;backgroundOutline=1;fontColor=#000000;strokeWidth=4;" vertex="1" parent="1">
          <mxGeometry x="-5925" y="2821.5" width="60" height="60" as="geometry" />
        </mxCell>
        <mxCell id="71u4eUDGPH7ACqHsyRGV-9" value="" style="shape=orEllipse;perimeter=ellipsePerimeter;whiteSpace=wrap;html=1;backgroundOutline=1;fontColor=#000000;strokeWidth=4;" vertex="1" parent="1">
          <mxGeometry x="-6195" y="2821.5" width="60" height="60" as="geometry" />
        </mxCell>
        <mxCell id="71u4eUDGPH7ACqHsyRGV-10" value="" style="shape=orEllipse;perimeter=ellipsePerimeter;whiteSpace=wrap;html=1;backgroundOutline=1;fontColor=#000000;strokeWidth=4;" vertex="1" parent="1">
          <mxGeometry x="-5385.88" y="822" width="60" height="60" as="geometry" />
        </mxCell>
        <mxCell id="71u4eUDGPH7ACqHsyRGV-11" value="" style="shape=orEllipse;perimeter=ellipsePerimeter;whiteSpace=wrap;html=1;backgroundOutline=1;fontColor=#000000;strokeWidth=4;" vertex="1" parent="1">
          <mxGeometry x="-5385.88" y="1252" width="60" height="60" as="geometry" />
        </mxCell>
        <mxCell id="71u4eUDGPH7ACqHsyRGV-12" value="" style="shape=orEllipse;perimeter=ellipsePerimeter;whiteSpace=wrap;html=1;backgroundOutline=1;fontColor=#000000;strokeWidth=4;" vertex="1" parent="1">
          <mxGeometry x="-5391.76" y="1482" width="60" height="60" as="geometry" />
        </mxCell>
        <mxCell id="71u4eUDGPH7ACqHsyRGV-13" value="" style="shape=orEllipse;perimeter=ellipsePerimeter;whiteSpace=wrap;html=1;backgroundOutline=1;fontColor=#000000;strokeWidth=4;" vertex="1" parent="1">
          <mxGeometry x="-5391.76" y="1742" width="60" height="60" as="geometry" />
        </mxCell>
        <mxCell id="71u4eUDGPH7ACqHsyRGV-14" value="" style="shape=orEllipse;perimeter=ellipsePerimeter;whiteSpace=wrap;html=1;backgroundOutline=1;fontColor=#000000;strokeWidth=4;" vertex="1" parent="1">
          <mxGeometry x="-5390.94" y="2142" width="60" height="60" as="geometry" />
        </mxCell>
        <mxCell id="71u4eUDGPH7ACqHsyRGV-15" value="" style="shape=orEllipse;perimeter=ellipsePerimeter;whiteSpace=wrap;html=1;backgroundOutline=1;fontColor=#000000;strokeWidth=4;" vertex="1" parent="1">
          <mxGeometry x="-5396.82" y="2632" width="60" height="60" as="geometry" />
        </mxCell>
        <mxCell id="71u4eUDGPH7ACqHsyRGV-16" value="" style="shape=orEllipse;perimeter=ellipsePerimeter;whiteSpace=wrap;html=1;backgroundOutline=1;fontColor=#000000;strokeWidth=4;" vertex="1" parent="1">
          <mxGeometry x="-6369.06" y="792" width="60" height="60" as="geometry" />
        </mxCell>
        <mxCell id="71u4eUDGPH7ACqHsyRGV-17" value="" style="shape=orEllipse;perimeter=ellipsePerimeter;whiteSpace=wrap;html=1;backgroundOutline=1;fontColor=#000000;strokeWidth=4;" vertex="1" parent="1">
          <mxGeometry x="-6369.0599999999995" y="1222" width="60" height="60" as="geometry" />
        </mxCell>
        <mxCell id="71u4eUDGPH7ACqHsyRGV-18" value="" style="shape=orEllipse;perimeter=ellipsePerimeter;whiteSpace=wrap;html=1;backgroundOutline=1;fontColor=#000000;strokeWidth=4;" vertex="1" parent="1">
          <mxGeometry x="-6374.94" y="1452" width="60" height="60" as="geometry" />
        </mxCell>
        <mxCell id="71u4eUDGPH7ACqHsyRGV-19" value="" style="shape=orEllipse;perimeter=ellipsePerimeter;whiteSpace=wrap;html=1;backgroundOutline=1;fontColor=#000000;strokeWidth=4;" vertex="1" parent="1">
          <mxGeometry x="-6374.94" y="1712" width="60" height="60" as="geometry" />
        </mxCell>
        <mxCell id="71u4eUDGPH7ACqHsyRGV-20" value="" style="shape=orEllipse;perimeter=ellipsePerimeter;whiteSpace=wrap;html=1;backgroundOutline=1;fontColor=#000000;strokeWidth=4;" vertex="1" parent="1">
          <mxGeometry x="-6374.12" y="2112" width="60" height="60" as="geometry" />
        </mxCell>
        <mxCell id="71u4eUDGPH7ACqHsyRGV-21" value="" style="shape=orEllipse;perimeter=ellipsePerimeter;whiteSpace=wrap;html=1;backgroundOutline=1;fontColor=#000000;strokeWidth=4;" vertex="1" parent="1">
          <mxGeometry x="-6380" y="2492.5" width="60" height="60" as="geometry" />
        </mxCell>
        <mxCell id="71u4eUDGPH7ACqHsyRGV-22" value="" style="strokeColor=#C73500;html=1;verticalLabelPosition=bottom;labelBackgroundColor=#ffffff;verticalAlign=top;outlineConnect=0;shadow=0;dashed=0;shape=mxgraph.rackGeneral.container;fillColor2=#f4f4f4;container=1;collapsible=0;childLayout=rack;allowGaps=1;marginLeft=9;marginRight=9;marginTop=21;marginBottom=22;textColor=#666666;numDisp=off;fontSize=53;fillColor=#fa6800;gradientDirection=north;fontColor=#000000;strokeWidth=5;fontStyle=1" vertex="1" parent="1">
          <mxGeometry x="-5980" y="802" width="310" height="330" as="geometry" />
        </mxCell>
        <mxCell id="71u4eUDGPH7ACqHsyRGV-23" value="&lt;font style=&quot;font-size: 50px;&quot;&gt;RACK 08&lt;br style=&quot;font-size: 50px;&quot;&gt;SWITCH 08&lt;br style=&quot;font-size: 50px;&quot;&gt;&lt;/font&gt;" style="html=1;verticalLabelPosition=bottom;verticalAlign=top;outlineConnect=0;shadow=0;dashed=0;shape=mxgraph.rack.hpe_aruba.switches.j9776a_2530_24g_switch;labelBackgroundColor=#000000;labelBorderColor=default;fontSize=50;fillColor=#a20025;opacity=90;fontColor=#ffffff;fontStyle=1;strokeColor=#6F0000;" vertex="1" parent="71u4eUDGPH7ACqHsyRGV-22">
          <mxGeometry x="9" y="21" width="292" height="45.75" as="geometry" />
        </mxCell>
        <mxCell id="71u4eUDGPH7ACqHsyRGV-24" value="&lt;font style=&quot;font-size: 67px;&quot; color=&quot;#000000&quot;&gt;18 PONTOS&lt;/font&gt;" style="text;html=1;strokeColor=none;fillColor=none;align=center;verticalAlign=middle;whiteSpace=wrap;rounded=0;labelBackgroundColor=none;labelBorderColor=default;fontSize=67;fontColor=#FFFFFF;fontStyle=1" vertex="1" parent="1">
          <mxGeometry x="-6230" y="422" width="670" height="280" as="geometry" />
        </mxCell>
        <mxCell id="71u4eUDGPH7ACqHsyRGV-25" value="&lt;h1 style=&quot;font-size: 160px;&quot; align=&quot;center&quot;&gt;M&lt;/h1&gt;&lt;div style=&quot;text-align: center;&quot;&gt;&lt;br&gt;&lt;/div&gt;&lt;p&gt;&lt;br&gt;&lt;/p&gt;" style="text;html=1;strokeColor=none;fillColor=none;spacing=5;spacingTop=-20;whiteSpace=wrap;overflow=hidden;rounded=0;fontSize=35;" vertex="1" parent="1">
          <mxGeometry x="-5925" y="1490" width="300" height="390" as="geometry" />
        </mxCell>
        <mxCell id="71u4eUDGPH7ACqHsyRGV-26" value="&lt;span style=&quot;font-size: 50px;&quot;&gt;M 1.1&lt;/span&gt;" style="text;html=1;strokeColor=none;fillColor=none;align=center;verticalAlign=middle;whiteSpace=wrap;rounded=0;strokeWidth=8;fontSize=30;fontStyle=1" vertex="1" parent="1">
          <mxGeometry x="-5570" y="832.5" width="144.12" height="30" as="geometry" />
        </mxCell>
        <mxCell id="71u4eUDGPH7ACqHsyRGV-27" value="&lt;span style=&quot;font-size: 50px;&quot;&gt;M 2.1&lt;/span&gt;" style="text;html=1;strokeColor=none;fillColor=none;align=center;verticalAlign=middle;whiteSpace=wrap;rounded=0;strokeWidth=8;fontSize=30;fontStyle=1" vertex="1" parent="1">
          <mxGeometry x="-5575.879999999999" y="1267" width="144.12" height="30" as="geometry" />
        </mxCell>
        <mxCell id="71u4eUDGPH7ACqHsyRGV-28" value="&lt;span style=&quot;font-size: 50px;&quot;&gt;M 3.1&lt;/span&gt;" style="text;html=1;strokeColor=none;fillColor=none;align=center;verticalAlign=middle;whiteSpace=wrap;rounded=0;strokeWidth=8;fontSize=30;fontStyle=1" vertex="1" parent="1">
          <mxGeometry x="-5575.879999999999" y="1497" width="144.12" height="30" as="geometry" />
        </mxCell>
        <mxCell id="71u4eUDGPH7ACqHsyRGV-29" value="&lt;span style=&quot;font-size: 50px;&quot;&gt;M 4.1&lt;/span&gt;" style="text;html=1;strokeColor=none;fillColor=none;align=center;verticalAlign=middle;whiteSpace=wrap;rounded=0;strokeWidth=8;fontSize=30;fontStyle=1" vertex="1" parent="1">
          <mxGeometry x="-5580.94" y="1757" width="144.12" height="30" as="geometry" />
        </mxCell>
        <mxCell id="71u4eUDGPH7ACqHsyRGV-30" value="&lt;span style=&quot;font-size: 50px;&quot;&gt;M 5.1&lt;/span&gt;" style="text;html=1;strokeColor=none;fillColor=none;align=center;verticalAlign=middle;whiteSpace=wrap;rounded=0;strokeWidth=8;fontSize=30;fontStyle=1" vertex="1" parent="1">
          <mxGeometry x="-5580.94" y="2157" width="144.12" height="30" as="geometry" />
        </mxCell>
        <mxCell id="71u4eUDGPH7ACqHsyRGV-31" value="&lt;span style=&quot;font-size: 50px;&quot;&gt;M 6.1&lt;/span&gt;" style="text;html=1;strokeColor=none;fillColor=none;align=center;verticalAlign=middle;whiteSpace=wrap;rounded=0;strokeWidth=8;fontSize=30;fontStyle=1" vertex="1" parent="1">
          <mxGeometry x="-5580.94" y="2647" width="144.12" height="30" as="geometry" />
        </mxCell>
        <mxCell id="71u4eUDGPH7ACqHsyRGV-32" value="&lt;span style=&quot;font-size: 50px;&quot;&gt;M 7.1&lt;/span&gt;" style="text;html=1;strokeColor=none;fillColor=none;align=center;verticalAlign=middle;whiteSpace=wrap;rounded=0;strokeWidth=8;fontSize=30;fontStyle=1" vertex="1" parent="1">
          <mxGeometry x="-5704.12" y="2737" width="144.12" height="30" as="geometry" />
        </mxCell>
        <mxCell id="71u4eUDGPH7ACqHsyRGV-33" value="&lt;span style=&quot;font-size: 50px;&quot;&gt;M 8.1&lt;/span&gt;" style="text;html=1;strokeColor=none;fillColor=none;align=center;verticalAlign=middle;whiteSpace=wrap;rounded=0;strokeWidth=8;fontSize=30;fontStyle=1" vertex="1" parent="1">
          <mxGeometry x="-5967.06" y="2744.5" width="144.12" height="30.5" as="geometry" />
        </mxCell>
        <mxCell id="71u4eUDGPH7ACqHsyRGV-34" value="&lt;span style=&quot;font-size: 50px;&quot;&gt;M 9.1&lt;/span&gt;" style="text;html=1;strokeColor=none;fillColor=none;align=center;verticalAlign=middle;whiteSpace=wrap;rounded=0;strokeWidth=8;fontSize=30;fontStyle=1" vertex="1" parent="1">
          <mxGeometry x="-6234.999999999999" y="2745" width="144.12" height="30" as="geometry" />
        </mxCell>
        <mxCell id="71u4eUDGPH7ACqHsyRGV-35" value="&lt;span style=&quot;font-size: 50px;&quot;&gt;M 10.1&lt;/span&gt;" style="text;html=1;strokeColor=none;fillColor=none;align=center;verticalAlign=middle;whiteSpace=wrap;rounded=0;strokeWidth=8;fontSize=30;fontStyle=1" vertex="1" parent="1">
          <mxGeometry x="-6290" y="2442.5" width="178.24" height="134.5" as="geometry" />
        </mxCell>
        <mxCell id="71u4eUDGPH7ACqHsyRGV-36" value="&lt;span style=&quot;font-size: 50px;&quot;&gt;M 11.1&lt;/span&gt;" style="text;html=1;strokeColor=none;fillColor=none;align=center;verticalAlign=middle;whiteSpace=wrap;rounded=0;strokeWidth=8;fontSize=30;fontStyle=1" vertex="1" parent="1">
          <mxGeometry x="-6308.24" y="2127" width="178.24" height="30" as="geometry" />
        </mxCell>
        <mxCell id="71u4eUDGPH7ACqHsyRGV-37" value="&lt;span style=&quot;font-size: 50px;&quot;&gt;M 12.1&lt;/span&gt;" style="text;html=1;strokeColor=none;fillColor=none;align=center;verticalAlign=middle;whiteSpace=wrap;rounded=0;strokeWidth=8;fontSize=30;fontStyle=1" vertex="1" parent="1">
          <mxGeometry x="-6313.24" y="1727" width="178.24" height="30" as="geometry" />
        </mxCell>
        <mxCell id="71u4eUDGPH7ACqHsyRGV-38" value="&lt;span style=&quot;font-size: 50px;&quot;&gt;M 13.1&lt;/span&gt;" style="text;html=1;strokeColor=none;fillColor=none;align=center;verticalAlign=middle;whiteSpace=wrap;rounded=0;strokeWidth=8;fontSize=30;fontStyle=1" vertex="1" parent="1">
          <mxGeometry x="-6313.24" y="1467" width="178.24" height="30" as="geometry" />
        </mxCell>
        <mxCell id="71u4eUDGPH7ACqHsyRGV-39" value="&lt;span style=&quot;font-size: 50px;&quot;&gt;M 14.1&lt;/span&gt;" style="text;html=1;strokeColor=none;fillColor=none;align=center;verticalAlign=middle;whiteSpace=wrap;rounded=0;strokeWidth=8;fontSize=30;fontStyle=1" vertex="1" parent="1">
          <mxGeometry x="-6309.06" y="1237" width="178.24" height="30" as="geometry" />
        </mxCell>
        <mxCell id="71u4eUDGPH7ACqHsyRGV-40" value="&lt;span style=&quot;font-size: 50px;&quot;&gt;M 15.1&lt;/span&gt;" style="text;html=1;strokeColor=none;fillColor=none;align=center;verticalAlign=middle;whiteSpace=wrap;rounded=0;strokeWidth=8;fontSize=30;fontStyle=1" vertex="1" parent="1">
          <mxGeometry x="-6308.240000000001" y="807" width="178.24" height="30" as="geometry" />
        </mxCell>
        <mxCell id="71u4eUDGPH7ACqHsyRGV-41" value="&lt;span style=&quot;font-size: 50px;&quot;&gt;M 16.1&lt;/span&gt;" style="text;html=1;strokeColor=none;fillColor=none;align=center;verticalAlign=middle;whiteSpace=wrap;rounded=0;strokeWidth=8;fontSize=30;fontStyle=1" vertex="1" parent="1">
          <mxGeometry x="-6320" y="234.30999999999995" width="228.24" height="30" as="geometry" />
        </mxCell>
        <mxCell id="71u4eUDGPH7ACqHsyRGV-42" value="&lt;span style=&quot;font-size: 50px;&quot;&gt;M 17.1&lt;/span&gt;" style="text;html=1;strokeColor=none;fillColor=none;align=center;verticalAlign=middle;whiteSpace=wrap;rounded=0;strokeWidth=8;fontSize=30;fontStyle=1" vertex="1" parent="1">
          <mxGeometry x="-6030" y="231.55999999999995" width="208.24" height="30" as="geometry" />
        </mxCell>
        <mxCell id="71u4eUDGPH7ACqHsyRGV-43" value="&lt;span style=&quot;font-size: 50px;&quot;&gt;M 18.1&lt;/span&gt;" style="text;html=1;strokeColor=none;fillColor=none;align=center;verticalAlign=middle;whiteSpace=wrap;rounded=0;strokeWidth=8;fontSize=30;fontStyle=1" vertex="1" parent="1">
          <mxGeometry x="-5730" y="229.80999999999995" width="260" height="30" as="geometry" />
        </mxCell>
      </root>
    </mxGraphModel>
  </diagram>
</mxfile>
